static_grf.mot
version=1
nRows=22
nColumns 19
inDegrees=yes
endheader
time	1_ground_force_vx	1_ground_force_vy	1_ground_force_vz	1_ground_force_px	1_ground_force_py	1_ground_force_pz	1_ground_torque_x	1_ground_torque_y	1_ground_torque_z	2_ground_force_vx	2_ground_force_vy	2_ground_force_vz	2_ground_force_px	2_ground_force_py	2_ground_force_pz	2_ground_torque_x	2_ground_torque_y	2_ground_torque_z
            0.475000	           -5.835599	          412.837043	          -47.190809	           -0.261182	            0.006232	           -0.408538	           -0.079661	            5.635558	           -0.644193	            2.428374	          475.309801	           51.063138	           -0.271416	            0.005447	           -0.681743	           -0.023117	           -4.524753	           -0.486100
            0.475500	           -5.789708	          413.197386	          -47.143525	           -0.261011	            0.006231	           -0.408399	           -0.079329	            5.661525	           -0.645949	            2.289318	          474.939674	           51.437308	           -0.271375	            0.005446	           -0.681543	           -0.021453	           -4.450709	           -0.482024
            0.476000	           -5.835614	          412.296412	          -47.238988	           -0.261184	            0.006234	           -0.409108	           -0.079084	            5.587437	           -0.640182	            2.428518	          475.308630	           51.391634	           -0.271303	            0.005447	           -0.681624	           -0.022820	           -4.466354	           -0.482914
            0.476500	           -5.652749	          413.198396	          -47.373142	           -0.261339	            0.006231	           -0.408464	           -0.078170	            5.713956	           -0.655104	            2.523609	          474.940185	           51.531065	           -0.271317	            0.005447	           -0.681549	           -0.024043	           -4.524891	           -0.490951
            0.477000	           -5.973371	          412.296779	          -47.330358	           -0.261406	            0.006233	           -0.408759	           -0.081806	            5.646451	           -0.648195	            2.336230	          474.939341	           51.578072	           -0.271473	            0.005446	           -0.681545	           -0.022304	           -4.534347	           -0.492427
            0.477500	           -5.698688	          412.477718	          -47.467832	           -0.261313	            0.006232	           -0.408560	           -0.078089	            5.652206	           -0.650454	            2.659424	          476.230346	           51.347892	           -0.271651	            0.005446	           -0.681805	           -0.025328	           -4.535489	           -0.489023
            0.478000	           -5.789870	          412.837248	          -47.236783	           -0.261216	            0.006232	           -0.408678	           -0.079295	            5.654008	           -0.646931	            2.431821	          474.388033	           51.341421	           -0.271615	            0.005445	           -0.681369	           -0.022922	           -4.471607	           -0.483947
            0.478500	           -5.469329	          413.558766	          -47.326199	           -0.261210	            0.006231	           -0.408456	           -0.075472	            5.706785	           -0.653064	            2.289318	          474.939674	           51.437308	           -0.271838	            0.005445	           -0.681623	           -0.021745	           -4.511200	           -0.488576
            0.479000	           -5.790457	          413.559097	          -47.417114	           -0.261256	            0.006232	           -0.408701	           -0.079132	            5.651701	           -0.648003	            2.382394	          475.123818	           51.531781	           -0.271697	            0.005445	           -0.681407	           -0.022727	           -4.532482	           -0.491592
            0.479500	           -5.789900	          411.756047	          -47.333132	           -0.261557	            0.006234	           -0.409046	           -0.079486	            5.652726	           -0.649805	            2.426380	          475.862223	           51.065109	           -0.271490	            0.005447	           -0.681801	           -0.023089	           -4.528155	           -0.485920
            0.480000	           -5.560362	          412.476368	          -47.147185	           -0.261385	            0.006234	           -0.408979	           -0.076998	            5.711805	           -0.652875	            2.427750	          475.493607	           51.157651	           -0.271611	            0.005446	           -0.681604	           -0.022787	           -4.463047	           -0.480173
            0.480500	           -5.790586	          413.018663	          -47.511145	           -0.261326	            0.006233	           -0.408776	           -0.079575	            5.675783	           -0.652907	            2.289962	          474.755639	           51.389723	           -0.271821	            0.005445	           -0.681642	           -0.021609	           -4.480076	           -0.484944
            0.481000	           -5.606058	          412.295866	          -47.101985	           -0.261450	            0.006234	           -0.409043	           -0.077589	            5.706289	           -0.651905	            2.148830	          474.938664	           51.578152	           -0.271489	            0.005446	           -0.681619	           -0.020175	           -4.459144	           -0.484261
            0.481500	           -5.836151	          412.117160	          -47.469036	           -0.261491	            0.006235	           -0.409291	           -0.079939	            5.644883	           -0.650197	            2.289318	          474.939674	           51.437308	           -0.271648	            0.005446	           -0.681701	           -0.021561	           -4.473092	           -0.484448
            0.482000	           -5.285693	          412.116676	          -47.332838	           -0.261288	            0.006234	           -0.409033	           -0.072973	            5.689583	           -0.653466	            2.428353	          475.309969	           51.016209	           -0.271617	            0.005446	           -0.681704	           -0.023063	           -4.514115	           -0.484511
            0.482500	           -5.652111	          411.575385	          -47.242535	           -0.261378	            0.006235	           -0.409328	           -0.077488	            5.642509	           -0.647673	            2.240515	          475.491592	           51.533155	           -0.271535	            0.005447	           -0.681836	           -0.020809	           -4.416251	           -0.478628
            0.483000	           -5.423680	          413.378872	          -47.418798	           -0.261619	            0.006231	           -0.408303	           -0.075033	            5.718842	           -0.656010	            2.476012	          475.124826	           51.344029	           -0.271573	            0.005446	           -0.681604	           -0.022881	           -4.390647	           -0.474472
            0.483500	           -5.835665	          413.197574	          -47.189263	           -0.261519	            0.006232	           -0.408631	           -0.079818	            5.651527	           -0.645433	            2.288050	          475.307453	           51.579406	           -0.271497	            0.005446	           -0.681661	           -0.021524	           -4.471261	           -0.485212
            0.484000	           -5.560493	          413.197431	          -47.144094	           -0.261105	            0.006232	           -0.408530	           -0.077088	            5.728338	           -0.653579	            2.383785	          474.754973	           51.671251	           -0.271646	            0.005445	           -0.681526	           -0.022723	           -4.525553	           -0.492551
            0.484500	           -5.697711	          412.115613	          -47.102530	           -0.261766	            0.006234	           -0.409065	           -0.077886	            5.633494	           -0.643877	            2.616664	          475.124496	           51.578610	           -0.271538	            0.005446	           -0.681728	           -0.024961	           -4.532303	           -0.492018
            0.485000	           -5.743928	          412.296430	          -47.239215	           -0.261797	            0.006233	           -0.408923	           -0.078601	            5.641926	           -0.646429	            2.473915	          475.678085	           51.111360	           -0.271666	            0.005446	           -0.681664	           -0.023448	           -4.508604	           -0.484447
            0.485500	           -5.560329	          412.296072	          -47.147959	           -0.261692	            0.006233	           -0.408861	           -0.075995	            5.634998	           -0.644388	            2.572870	          474.205738	           50.965279	           -0.271789	            0.005444	           -0.681273	           -0.024449	           -4.506107	           -0.484294
